<svg width="185" height="42" viewBox="0 0 185 42" fill="none" xmlns="http://www.w3.org/2000/svg">
<g clip-path="url(#clip0_1180_213)">
<rect width="184.699" height="42" fill="#FFDF4E"/>
<path d="M21.1897 30.9292C26.5325 30.9292 30.8638 26.598 30.8638 21.2552C30.8638 15.9123 26.5325 11.5811 21.1897 11.5811C15.8469 11.5811 11.5156 15.9123 11.5156 21.2552C11.5156 26.598 15.8469 30.9292 21.1897 30.9292Z" fill="black"/>
<path d="M0 11.1152C5.59897 11.1152 10.1411 15.6524 10.1411 21.2563C10.1411 26.8602 5.60388 31.3973 0 31.3973V11.1201V11.1152Z" fill="black"/>
<path d="M31.3212 0.00488281C31.3212 5.60385 26.784 10.1459 21.1801 10.1459C15.5762 10.1459 11.0391 5.60877 11.0391 0.00488281H31.3163H31.3212Z" fill="black"/>
<path d="M42.3676 31.3915C36.7687 31.3915 32.2266 26.8543 32.2266 21.2504C32.2266 15.6466 36.7637 11.1094 42.3676 11.1094V31.3866V31.3915Z" fill="black"/>
<path d="M11.0391 42.5063C11.0391 36.9073 15.5762 32.3652 21.1801 32.3652C26.784 32.3652 31.3212 36.9024 31.3212 42.5063H11.044H11.0391Z" fill="black"/>
<path d="M0 10.1411C5.59897 10.1411 10.1411 5.60388 10.1411 0H0V10.1411Z" fill="black"/>
<path d="M42.3676 10.1411C36.7687 10.1411 32.2266 5.60388 32.2266 0H42.3676V10.1411Z" fill="black"/>
<path d="M0 32.3652C5.59897 32.3652 10.1411 36.9024 10.1411 42.5063H0V32.3652Z" fill="black"/>
<path d="M42.3676 32.3652C36.7687 32.3652 32.2266 36.9024 32.2266 42.5063H42.3676V32.3652Z" fill="black"/>
<path d="M164.574 31.439C159.615 31.439 155.789 28.0385 155.789 21.2092C155.789 14.4649 159.643 11.1494 164.574 11.1494C168.881 11.1494 172.083 13.7281 172.536 17.5537H168.541C168.031 15.8251 166.784 14.4649 164.574 14.4649C161.542 14.4649 159.728 17.1569 159.728 21.2092C159.728 25.2614 161.542 28.1235 164.715 28.1235C166.756 28.1235 168.711 26.735 168.938 23.3911H164.659V20.3874H172.848V22.1443C172.848 28.8319 168.938 31.439 164.574 31.439Z" fill="black"/>
<path d="M136.188 31.2121V11.376H140.665L148.543 25.6013H148.713V11.376H152.481V31.2121H148.118L140.126 17.1001H139.956V31.2121H136.188Z" fill="black"/>
<path d="M121.172 31.2121V28.0667H125.139V14.5214H121.172V11.376H132.847V14.5214H128.851V28.0667H132.819V31.2121H121.172Z" fill="black"/>
<path d="M109.671 31.2121V14.5214H104.117V11.376H119.023V14.5214H113.469V31.2121H109.671Z" fill="black"/>
<path d="M87.4297 31.2121V11.376H96.1576C100.21 11.376 102.25 14.1247 102.25 17.6102C102.25 19.9339 101.372 22.5409 98.6796 23.476L102.732 31.2121H98.5379L94.8541 23.8161H91.1986V31.2121H87.4297ZM91.1986 20.8123H95.5058C97.2627 20.8123 98.4813 19.7072 98.4813 17.6385C98.4813 15.8533 97.5178 14.4931 95.4208 14.4931H91.1986V20.8123Z" fill="black"/>
<path d="M72.4141 31.2121V28.0667H76.3813V14.5214H72.4141V11.376H84.0891V14.5214H80.0935V28.0667H84.0607V31.2121H72.4141Z" fill="black"/>
<path d="M54.6953 31.2121V11.376H63.7066C67.3338 11.376 69.4307 13.6996 69.4307 16.3067C69.4307 18.4603 68.0422 20.3022 65.8319 20.8407V21.0107C68.4956 21.4357 70.1958 23.3343 70.1958 25.8847C70.1958 29.0018 67.7305 31.2121 64.3867 31.2121H54.6953ZM58.4642 28.2084H63.2815C65.0668 28.2084 66.257 27.1315 66.257 25.403C66.257 23.4477 64.7834 22.6826 63.2249 22.6826H58.4642V28.2084ZM58.4642 19.7072H63.0548C64.3867 19.7072 65.5769 18.7437 65.5769 16.9301C65.5769 15.2582 64.5 14.3797 62.9982 14.3797H58.4642V19.7072Z" fill="black"/>
</g>
<defs>
<clipPath id="clip0_1180_213">
<rect width="184.699" height="42" fill="white"/>
</clipPath>
</defs>
</svg>
