<svg width="90" height="53" viewBox="0 0 90 53" fill="none" xmlns="http://www.w3.org/2000/svg">
<g clip-path="url(#clip0_243_711)">
<path fill-rule="evenodd" clip-rule="evenodd" d="M1.10555 21.9827C1.02862 27.4193 1.00292 32.8559 1.02862 38.2929C1.32835 39.5928 2.0977 40.4903 3.33666 40.9856C5.94429 41.2332 8.56003 41.2845 11.184 41.1395C12.4687 40.5734 13.315 39.6245 13.7229 38.2929C13.7487 36.598 13.8256 34.9055 13.9537 33.2152C15.5283 38.6542 17.0926 44.0909 18.6467 49.5254C18.7493 46.089 18.7493 42.6525 18.6467 39.2161C17.3528 34.9243 16.1218 30.6159 14.9538 26.2911C16.1451 29.1348 17.3761 31.9556 18.6467 34.7539C18.7493 32.3432 18.7493 29.9327 18.6467 27.522C17.4017 24.6041 16.2221 21.6805 15.1077 18.7515C16.2486 20.7772 17.4282 22.7775 18.6467 24.7524C18.7493 22.5982 18.7493 20.444 18.6467 18.2899C17.0957 15.444 15.5057 12.623 13.8767 9.82704C14.2291 7.96034 13.7418 6.3447 12.415 4.98014C11.8972 4.64818 11.41 4.67382 10.9532 5.05708C10.8209 6.76294 11.3338 8.25033 12.4919 9.5193C12.5945 10.4425 12.5945 11.3657 12.4919 12.2889C10.9065 14.0283 9.26526 15.7209 7.56808 17.3666C7.4399 20.4453 7.4656 23.5227 7.64501 26.5988C9.28413 25.0367 10.8998 23.4467 12.4919 21.8289C12.489 22.2511 12.3864 22.6615 12.1842 23.0598L7.56808 27.6759C7.46545 28.2914 7.46545 28.9069 7.56808 29.5224L12.4919 24.5985C12.4839 25.1412 12.33 25.6541 12.0303 26.1372L7.56808 30.5994C7.46545 31.2149 7.46545 31.8304 7.56808 32.4459L12.4919 27.522C12.466 28.0101 12.3121 28.4717 12.0303 28.9069L7.56808 33.3691C7.46545 33.9846 7.46545 34.6001 7.56808 35.2155C9.16023 33.5977 10.7759 32.0077 12.415 30.4456C12.5944 32.8032 12.6201 35.1626 12.4919 37.5236C12.2484 38.51 11.6586 39.1767 10.7224 39.5239C10.7054 39.6188 10.6541 39.6958 10.5685 39.7547C8.54158 39.8819 6.5413 39.8562 4.56762 39.6777C3.39144 39.488 2.64763 38.8213 2.33651 37.6774C2.23388 34.3436 2.23388 31.0098 2.33651 27.6759C2.80581 28.2291 3.29296 28.7676 3.79827 29.2915C3.92629 29.3974 4.02877 29.3717 4.10601 29.2146C2.9086 27.0555 1.98538 24.7989 1.33636 22.4443C1.21818 22.3269 1.14125 22.1731 1.10555 21.9827ZM13.1066 8.75035C13.182 8.55136 13.2077 8.34619 13.1836 8.13487C12.7808 7.22776 12.2935 6.35583 11.7218 5.51908C11.8813 6.71159 12.3429 7.78868 13.1066 8.75035Z" fill="#2A2E28"/>
<path fill-rule="evenodd" clip-rule="evenodd" d="M10.7227 39.5244C10.7056 39.6194 10.6543 39.6963 10.5688 39.7552C8.54183 39.8825 6.54156 39.8568 4.56787 39.6783C6.62711 39.724 8.67864 39.6727 10.7227 39.5244Z" fill="#2A2E28"/>
<path fill-rule="evenodd" clip-rule="evenodd" d="M1.33621 22.4437C1.21804 22.3263 1.1411 22.1725 1.1054 21.9821C1.02847 27.4186 1.00277 32.8553 1.02847 38.2923C0.823822 32.727 0.823823 27.1364 1.02847 21.5205C1.27251 21.7779 1.37514 22.0857 1.33621 22.4437Z" fill="#2A2E28"/>
</g>
<path d="M66.2173 11.7061H72.4242C73.921 11.7061 75.1846 11.9417 76.2152 12.413C77.251 12.8791 78.0253 13.5265 78.538 14.3551C79.0559 15.1837 79.3148 16.1366 79.3148 17.2139C79.3148 18.2652 79.0455 19.2155 78.5069 20.0649C77.9735 20.9142 77.1552 21.5901 76.0521 22.0924C74.9542 22.5948 73.5973 22.8459 71.9814 22.8459H66.2173V11.7061ZM71.9115 20.0105C72.5848 20.0105 73.1571 19.8965 73.6283 19.6687C74.0996 19.4408 74.4544 19.1171 74.6926 18.6976C74.9308 18.2729 75.05 17.7732 75.05 17.1983C75.05 16.3852 74.8066 15.7404 74.3197 15.264C73.8381 14.7823 73.1105 14.5415 72.1368 14.5415H70.1947V20.0105H71.9115Z" fill="#2A2E28"/>
<path d="M64.9351 19.5988V22.8459H54.7041V11.7061H58.6815V19.5988H64.9351Z" fill="#2A2E28"/>
<path d="M48.6299 11.6895H52.6073V22.8449H48.6299V11.6895Z" fill="#2A2E28"/>
<path d="M47.4255 11.7061L44.6289 22.8459H39.5328L37.5674 15.9864L35.703 22.8459H31.1041L28.2842 11.7061H32.2927L33.7842 18.216L35.5399 11.7061H39.9834L41.8944 18.5656L43.4481 11.7061H47.4255Z" fill="#2A2E28"/>
<path d="M83.4538 35.9187V38.7542H73.083V27.6143H83.4072V30.4497H77.0604V31.817H83.0887V34.4272H77.0604V35.9187H83.4538Z" fill="#2A2E28"/>
<path d="M70.9856 27.6143V38.7542H65.9128L61.9975 31.7237V38.7542H58.4629V27.6143H63.6988L67.4665 34.5204V27.6143H70.9856Z" fill="#2A2E28"/>
<path d="M52.3877 27.5977H56.3651V38.7531H52.3877V27.5977Z" fill="#2A2E28"/>
<path d="M51.106 35.507V38.7542H40.875V27.6143H44.8524V35.507H51.106Z" fill="#2A2E28"/>
<defs>
<clipPath id="clip0_243_711">
<rect width="52.0078" height="18.7228" fill="white" transform="translate(19.2563 0.670898) rotate(90)"/>
</clipPath>
</defs>
</svg>
