<svg width="76" height="45" viewBox="0 0 76 45" fill="none" xmlns="http://www.w3.org/2000/svg">
<path d="M41.1641 8.71924L38.5273 19.2222H33.7227L31.8696 12.7549L30.1118 19.2222H25.7759L23.1172 8.71924H26.8965L28.3027 14.8569L29.958 8.71924H34.1475L35.9492 15.1865L37.4141 8.71924H41.1641ZM42.2993 8.70459H46.0493V19.2222H42.2993V8.70459ZM57.6729 16.1606V19.2222H48.0269V8.71924H51.7769V16.1606H57.6729ZM58.8813 8.71924H64.7334C66.1445 8.71924 67.3359 8.94141 68.3076 9.38574C69.2842 9.8252 70.0142 10.4355 70.4976 11.2168C70.9858 11.998 71.23 12.8965 71.23 13.9121C71.23 14.9033 70.9761 15.7993 70.4683 16.6001C69.9653 17.4009 69.1938 18.0381 68.1538 18.5117C67.1187 18.9854 65.8394 19.2222 64.3159 19.2222H58.8813V8.71924ZM64.25 16.5488C64.8848 16.5488 65.4243 16.4414 65.8687 16.2266C66.313 16.0117 66.6475 15.7065 66.8721 15.311C67.0967 14.9106 67.209 14.4395 67.209 13.8975C67.209 13.1309 66.9795 12.5229 66.5205 12.0737C66.0664 11.6196 65.3804 11.3926 64.4624 11.3926H62.6313V16.5488H64.25Z" fill="#F6F0E9"/>
<g clip-path="url(#clip0_169_476)">
<path fill-rule="evenodd" clip-rule="evenodd" d="M0.488992 18.2116C0.423246 22.8575 0.401286 27.5035 0.423245 32.1498C0.679392 33.2607 1.33686 34.0277 2.39564 34.451C4.62405 34.6625 6.85938 34.7063 9.10177 34.5824C10.1996 34.0987 10.9228 33.2878 11.2714 32.1498C11.2934 30.7014 11.3592 29.255 11.4686 27.8106C12.8143 32.4586 14.1511 37.1046 15.4792 41.7488C15.5668 38.8122 15.5668 35.8754 15.4792 32.9388C14.3734 29.2711 13.3215 25.5893 12.3233 21.8934C13.3414 24.3235 14.3933 26.7342 15.4792 29.1255C15.5668 27.0654 15.5668 25.0054 15.4792 22.9453C14.4153 20.4517 13.4071 17.9533 12.4548 15.4502C13.4298 17.1813 14.4379 18.8908 15.4792 20.5785C15.5668 18.7376 15.5668 16.8967 15.4792 15.0558C14.1537 12.6238 12.795 10.2131 11.4029 7.82366C11.704 6.22843 11.2876 4.84776 10.1537 3.68164C9.71125 3.39796 9.29486 3.41986 8.90453 3.74738C8.79146 5.20517 9.22978 6.47625 10.2195 7.56068C10.3071 8.34963 10.3071 9.13859 10.2195 9.92755C8.86465 11.414 7.46206 12.8604 6.01169 14.2668C5.90216 16.8977 5.92412 19.5276 6.07744 22.1564C7.47818 20.8215 8.85885 19.4626 10.2195 18.0801C10.2169 18.4409 10.1293 18.7916 9.95647 19.132L6.01169 23.0768C5.92398 23.6028 5.92398 24.1288 6.01169 24.6547L10.2195 20.447C10.2126 20.9107 10.0811 21.349 9.82498 21.7619L6.01169 25.5752C5.92398 26.1012 5.92398 26.6271 6.01169 27.1531L10.2195 22.9453C10.1973 23.3624 10.0658 23.7569 9.82498 24.1288L6.01169 27.9421C5.92398 28.468 5.92398 28.994 6.01169 29.52C7.3723 28.1375 8.75297 26.7786 10.1537 25.4437C10.3071 27.4584 10.329 29.4747 10.2195 31.4924C10.0114 32.3354 9.50731 32.9051 8.70729 33.2018C8.69273 33.2829 8.64891 33.3487 8.5758 33.399C6.84362 33.5078 5.13424 33.4858 3.44758 33.3333C2.44245 33.1711 1.80681 32.6014 1.54093 31.6239C1.45323 28.7748 1.45323 25.9259 1.54093 23.0768C1.94199 23.5495 2.35829 24.0098 2.79012 24.4575C2.89952 24.548 2.98709 24.526 3.0531 24.3918C2.02982 22.5466 1.24087 20.6182 0.686231 18.6061C0.585244 18.5057 0.519498 18.3742 0.488992 18.2116ZM10.7455 6.90321C10.81 6.73316 10.8319 6.55783 10.8113 6.37724C10.4671 5.60205 10.0507 4.85692 9.56211 4.14186C9.69839 5.16094 10.0929 6.08139 10.7455 6.90321Z" fill="#F6F0E9"/>
<path fill-rule="evenodd" clip-rule="evenodd" d="M8.70752 33.2019C8.69296 33.283 8.64914 33.3488 8.57603 33.3991C6.84385 33.5079 5.13446 33.4859 3.44781 33.3334C5.20758 33.3725 6.96076 33.3287 8.70752 33.2019Z" fill="#F6F0E9"/>
<path fill-rule="evenodd" clip-rule="evenodd" d="M0.686498 18.6061C0.585511 18.5058 0.519765 18.3743 0.489258 18.2116C0.423512 22.8575 0.401552 27.5036 0.423511 32.1499C0.248626 27.3939 0.248626 22.6164 0.423512 17.8171C0.63206 18.0371 0.719765 18.3001 0.686498 18.6061Z" fill="#F6F0E9"/>
</g>
<path d="M44.6348 31.1606V34.2222H34.9888V23.7192H38.7388V31.1606H44.6348ZM45.8433 23.7046H49.5933V34.2222H45.8433V23.7046ZM63.3774 23.7192V34.2222H58.5947L54.9033 27.5938V34.2222H51.5708V23.7192H56.5073L60.0596 30.2305V23.7192H63.3774ZM75.1328 31.5488V34.2222H65.355V23.7192H75.0889V26.3926H69.105V27.6816H74.7886V30.1426H69.105V31.5488H75.1328Z" fill="#F6F0E9"/>
<defs>
<clipPath id="clip0_169_476">
<rect width="44.4444" height="16" fill="white" transform="translate(16) rotate(90)"/>
</clipPath>
</defs>
</svg>
